<?xml version="1.0" encoding="utf-8"?>
<svg width="48" height="48" viewBox="0 0 48 48" fill="none" xmlns="http://www.w3.org/2000/svg">
<path d="M38.6543 8.42708L42.866 2.4324L37.6125 7.20552C33.7112 2.90745 28.1252 0.192871 21.9186 0.192871C10.126 0.192871 0.550049 9.96534 0.550049 22C0.550049 34.0572 10.126 43.807 21.9186 43.807C33.7333 43.807 43.2871 34.0346 43.2871 22C43.3093 16.8649 41.5581 12.1596 38.6543 8.42708ZM36.7923 29.2162C36.7923 33.6274 33.29 37.179 28.9897 37.179H14.8696C10.5472 37.179 7.06701 33.6048 7.06701 29.2162V14.8063C7.06701 10.3951 10.5693 6.84358 14.8696 6.84358H28.9897C31.3837 6.84358 33.5117 7.92941 34.9303 9.64864L21.8521 21.5701L12.9633 15.4171L19.3916 28.0399C19.4359 28.1077 19.4803 28.1756 19.5468 28.2435C19.5689 28.2887 19.5911 28.3113 19.6133 28.3566C19.6798 28.4471 19.7241 28.5376 19.8128 28.6054C19.8793 28.6733 19.9458 28.7185 20.0123 28.7864C20.8324 29.5329 21.9186 29.7817 22.9382 29.5329H22.9604C23.1377 29.4877 23.3151 29.4198 23.4924 29.3293C23.5146 29.3067 23.5367 29.3067 23.5811 29.2841C23.7362 29.2162 23.8692 29.1257 24.0244 29.0126C24.0687 28.99 24.1131 28.9447 24.1574 28.9221C24.2239 28.8769 24.3126 28.8316 24.3791 28.7638C24.4234 28.7185 24.4677 28.6507 24.5121 28.6054C24.5342 28.5828 24.5564 28.5602 24.5786 28.5376L24.6451 28.4471C24.7337 28.334 24.8224 28.2209 24.8889 28.1077L36.2382 11.8655C36.5928 12.7704 36.7923 13.7657 36.7923 14.8063V29.2162Z" fill="currentColor"/>
</svg>
